<svg width="14" height="16" viewBox="0 0 14 16" fill="none" xmlns="http://www.w3.org/2000/svg">
<path d="M4.4 1H10C10.3713 1 10.7274 1.1475 10.9899 1.41005C11.2525 1.6726 11.4 2.0287 11.4 2.4V13.6C11.4 13.9713 11.2525 14.3274 10.9899 14.5899C10.7274 14.8525 10.3713 15 10 15H4.4C4.0287 15 3.6726 14.8525 3.41005 14.5899C3.1475 14.3274 3 13.9713 3 13.6V2.4C3 2.0287 3.1475 1.6726 3.41005 1.41005C3.6726 1.1475 4.0287 1 4.4 1ZM4.4 2.4V13.6H10V2.4H4.4ZM5.8 3.8H8.6V4.85H5.8V3.8ZM5.8 5.9H8.6V6.95H5.8V5.9Z" fill="#333333"/>
</svg>
